<svg aria-hidden="true" style="position: absolute; width: 0; height: 0; overflow: hidden;" version="1.1" xmlns="http://www.w3.org/2000/svg">
    <defs>
        <symbol id="icon-attachment" viewBox="0 0 32 32">
            <path d="M28.1 18.9l-15-15c-2.5-2.6-6.6-2.6-9.2-.1s-2.6 6.7 0 9.2l.1.1 2.8 2.9 1.4-1.4-2.9-2.9c-1.7-1.7-1.7-4.6 0-6.3s4.6-1.7 6.3-.1l15 15c1.8 1.7 1.8 4.6.1 6.3-1.7 1.8-4.6 1.8-6.3.1l-7.5-7.5c-1-1-.9-2.6 0-3.5.5-.4 1.1-.7 1.8-.7s1.3.2 1.8.7l4.1 4.1 1.4-1.4-4.2-4.2c-.4-.4-.9-.7-1.5-.9s-1.1-.3-1.7-.3c-.6 0-1.2.1-1.7.3s-1.6-1.4 1c-1.6 1.7-1.6 4.4 0 6.2l7.5 7.5c2.5 2.6 6.6 2.6 9.2.1s2.6-6.7 0-9.3z" />
        </symbol>

        <symbol id="icon-login" viewBox="0 0 32 32">
            <path fill="none" stroke="#e3e3e3" stroke-linejoin="round" stroke-linecap="round" stroke-miterlimit="4" stroke-width="2.6667" d="M18.667 22.667l6.667-6.667-6.667-6.667M25.333 16H6.667" />
        </symbol>

        <symbol id="icon-eye" viewBox="0 0 32 32">
            <path fill="none" stroke="#f9f9f9" stroke-linejoin="round" stroke-linecap="round" stroke-miterlimit="4" stroke-width="2.08" d="M1.333 16s5.334-10.667 14.667-10.667 14.667 10.667 14.667 10.667-5.334 10.667-14.667 10.667-14.667-10.667-14.667-10.667zM16 20c2.209 0 4-1.791 4-4s-1.791-4-4-4c-2.209 0-4 1.791-4 4s1.791 4 4 4z" />
        </symbol>

        <symbol id="icon-eye-off" viewBox="0 0 32 32">
            <path fill="none" stroke="#f9f9f9" stroke-linejoin="round" stroke-linecap="round" stroke-miterlimit="4" stroke-width="2.08" d="M23.92 23.92c-2.175 1.672-4.923 2.696-7.908 2.747l-0.012 0c-9.333 0-14.667-10.667-14.667-10.667 1.713-3.152 3.978-5.791 6.689-7.877l0.058-0.043M13.2 5.653c0.833-0.203 1.788-0.32 2.771-0.32 0.010 0 0.020 0 0.030 0h-0.002c9.333 0 14.667 10.667 14.667 10.667-0.872 1.615-1.827 3.008-2.91 4.289l0.030-0.036M18.827 18.827c-0.731 0.774-1.764 1.256-2.91 1.256-2.209 0-4-1.791-4-4 0-1.146 0.482-2.179 1.254-2.909l0.002-0.002M1.333 1.333l29.334 29.334"/>
        </symbol>

        <symbol id="icon-error" viewBox="0 0 32 32">
            <path d="M16 29c-7.18 0-13-5.82-13-13s5.82-13 13-13 13 5.82 13 13-5.82 13-13 13zm0 3c8.837 0 16-7.163 16-16S24.837 0 16 0 0 7.163 0 16s7.163 16 16 16zm2 2c0 1.1-.9 2-2 2s-2-.9-2-2c0-1.1.9-2 2-2s2.9 2 2zm-.5-12.5c-.1-.8-.7-1.4-1.5-1.4s-1.4.6-1.5 1.4v7c0.8.7 1.5 1.5 1.5s1.5-.7 1.5-1.5v-7z" />
        </symbol>

        <symbol id="icon-check" viewBox="0 0 32 32">
            <path d="M15 21.76l-5.4-6.08 1.8-2.03 3.6 4.05 7.2-8.11 1.8 2.03-9 10.13zm-15-5.76c0 8.84 7.16 16 16 16s16-7.16 16-16S24.84 0 16 0 0 7.16 0 16zm16 13.09c-7.23 0-13.09-5.86-13.09-13.09S8.77 2.91 16 2.91s13.09 5.86 13.09 13.09-5.86 13.09-13.09 13.09z" />
        </symbol>

        <symbol id="icon-hourglass" viewBox="0 0 32 32">
            <path fill="none" stroke="#f9f9f9" stroke-linejoin="round" stroke-linecap="round" stroke-miterlimit="4" stroke-width="3.2" d="M16 16l-5.7-4.7c-.8-.7-1.3-1.1-1.6-1.5-.3-.4-.5-.8-.6-1.2l-.01-.03c-.1-.5-.1-1-.1-2.2V7.3M16 16l5.7-4.7c.8-.7 1.3-1.1 1.6-1.5.3-.4.5-.8.6-1.2l.01-.03c.1-.5.1-1.1-2.2V7.3M16 16l-5.7 4.7c-.8.7-1.3 1.1-1.6 1.5-.3.4-.5.8-.6 1.2l-.01.03c-.1.5-.1 1-.1 2.2v3.7M16 16l5.7 4.7c.8.7 1.3 1.1 1.6 1.5.3.4.5.8.6 1.2l.01.03c.1.5.1 1.1 2.2v3.7M5.3 2.7h21.3M5.3 29.3h21.3" />
        </symbol>

        <symbol id="icon-pie_chart" viewBox="0 0 32 32">
            <path fill="none" stroke="#f9f9f9" stroke-linejoin="round" stroke-linecap="round" stroke-miterlimit="4" stroke-width="3.2" d="M22.9 18.7c.4 0.6 0.7.1.1.1.2.2.3.3l.002.004c.1.1.1.3 0.7-.6 5.4-5.1 9.6-10.6 9.6-5.9 0-10.7-4.8-10.7-10.7 0-5.5 4.2-10.1 9.6-10.6l.05-.01c.3-.1.5-.1.7 0.1.1.3.2.3.3.1.1.1.3.1.7v8.5c0.4 0.6.1.7.1.1.2.2.3.3.1.1.3.1.7.1h8.5zM18.7 3.7c0-.4 0-.6.1-.7.1-.1.2-.2.3-.3l.004-.002c.1-.1.3-.1.7 0 5.1.5 9 4.5 9.5 9.5l.004.05c0.3.1.5-.1.7-.1.1-.2.2-.3.3-.1.1-.3.1-.7.1h-8.5c-.4 0-.6 0-.7-.1-.1-.1-.2-.2-.3-.3l-.002-.004c-.1-.1-.1-.3-.1-.7v-8.5z" />
        </symbol>

        <symbol id="icon-menu" viewBox="0 0 32 32">
            <path fill="none" stroke="#f9f9f9" style="stroke: var(--color1, #f9f9f9)" stroke-linejoin="round" stroke-linecap="round" stroke-miterlimit="4" stroke-width="2.2857" d="M4 16h24M4 8h24M12 24h16"></path>
        </symbol>
        
        <symbol id="icon-close" viewBox="0 0 32 32">
            <path fill="none" stroke="#f9f9f9" style="stroke: var(--color1, #f9f9f9)" stroke-linejoin="round" stroke-linecap="round" stroke-miterlimit="4" stroke-width="2.2857" d="M24 8l-16 16M8 8l16 16"></path>
        </symbol>

        <symbol id="icon-navigate" viewBox="0 0 32 32">
            <path fill="none" stroke="#f9f9f9" style="stroke: var(--color1, #f9f9f9)" stroke-linejoin="round" stroke-linecap="round" stroke-miterlimit="4" stroke-width="2.6667" d="M18.667 22.667l6.667-6.667-6.667-6.667M25.333 16h-18.667"></path>
        </symbol>
        <symbol id="icon-close" viewBox="0 0 32 32">
            <path fill="none" stroke="#f9f9f9" style="stroke: var(--color1, #f9f9f9)" stroke-linejoin="round" stroke-linecap="round" stroke-miterlimit="4" stroke-width="2.9091" d="M24 8l-16 16M8 8l16 16"></path>
        </symbol>
    </defs>
</svg>